# xmcd
# 
# Track frame offsets:
#     150
#     7250
#     28310
#     43740
#     57227
#     80587
#     92915
#     108090
#     127692
#     150850
#     161367
#     176692
#     192332
#     207825
# 
# Disc length: 3055
# 
# Revision: 6
# Processed by: cddbd v1.5.2PL0 Copyright (c) Steve Scherf et al.
# Submitted via: fre:ac v1.0.17
# 
DISCID=ae0bed0e
DTITLE=Everlast - Eat at Whitey's
DYEAR=2000
DGENRE=Rock
TTITLE0=Whitey
TTITLE1=Black Jesus
TTITLE2=I Can't Move
TTITLE3=Black Coffee
TTITLE4=Babylon Feeling (feat. Carlos Santana)
TTITLE5=Deadly Assassins (feat. B-Real)
TTITLE6=Children's Story (feat. Rahzel)
TTITLE7=Love For Real (feat. N'Dea Davenport)
TTITLE8=One And The Same
TTITLE9=We're All Gonna Die (feat. Cee-Lo)
TTITLE10=Mercy On My Soul (feat. Warren Haynes)
TTITLE11=One, Two (feat. Kurupt)
TTITLE12=Graves To Dig
TTITLE13=Put Your Lights On (feat. Carlos Santana)
EXTD=YEAR: 2000
EXTT0=
EXTT1=
EXTT2=
EXTT3=
EXTT4=
EXTT5=
EXTT6=
EXTT7=
EXTT8=
EXTT9=
EXTT10=
EXTT11=
EXTT12=
EXTT13=
PLAYORDER=
